<?xml version="1.0" encoding="UTF-8"?>
<svg width="20px" height="16px" viewBox="0 0 20 16" version="1.1" xmlns="http://www.w3.org/2000/svg" xmlns:xlink="http://www.w3.org/1999/xlink">
    <!-- Generator: sketchtool 55.2 (78181) - https://sketchapp.com -->
    <title>44CE1E70-F530-4B12-9C18-F82CD8350243@3x</title>
    <desc>Created with sketchtool.</desc>
    <g id="Page-1" stroke="none" stroke-width="1" fill="none" fill-rule="evenodd">
        <g id="SignIn" transform="translate(-537.000000, -406.000000)" fill="#D7D7D7">
            <g id="Group" transform="translate(485.000000, 181.000000)">
                <g id="Group-4" transform="translate(38.000000, 186.000000)">
                    <path d="M24,50.7692308 C25.6,50.7692308 27.2,49.2884615 28,48.6538462 C32,45.6923077 33.2,44.6346154 34,44 L34,52.8846154 C34,54.0527043 33.104375,55 32,55 L16,55 C14.895625,55 14,54.0527043 14,52.8846154 L14,44 C14.8,44.6346154 16,45.6923077 20,48.6538462 C20.8,49.2884615 22.4,50.7692308 24,50.7692308 Z M32,39 C33.104375,39 34,39.895625 34,41 L34,42.2 C32.4,43.4 32.6,43.4 26.8,47.6 C26.2,47.8 25,49 24,49 C23,49 21.8,47.8 21.2,47.4 C15.4,43.2 15.6,43.2 14,42 L14,41 C14,39.895625 14.895625,39 16,39 L32,39 Z" id="Path-2"></path>
                </g>
            </g>
        </g>
    </g>
</svg>