<?xml version="1.0" encoding="UTF-8"?>
<svg width="16px" height="16px" viewBox="0 0 16 16" version="1.1" xmlns="http://www.w3.org/2000/svg" xmlns:xlink="http://www.w3.org/1999/xlink">
    <!-- Generator: sketchtool 55.2 (78181) - https://sketchapp.com -->
    <title>1D3B477D-DB9F-44FE-A6BF-53F49A63993C@3x</title>
    <desc>Created with sketchtool.</desc>
    <g id="Page-1" stroke="none" stroke-width="1" fill="none" fill-rule="evenodd">
        <g id="SignUp_Info_Backup" transform="translate(-751.000000, -492.000000)" fill="#D7D7D7" fill-rule="nonzero">
            <g id="Group" transform="translate(435.000000, 40.000000)">
                <g id="Group-4-Copy-5" transform="translate(300.000000, 413.000000)">
                    <path d="M30.2857143,39 L17.7142857,39 C16.7675,39 16,39.7675 16,40.7142857 L16,53.2857143 C16,54.2325 16.7675,55 17.7142857,55 L30.2857143,55 C31.2325,55 32,54.2325 32,53.2857143 L32,40.7142857 C32,39.7675 31.2325,39 30.2857143,39 Z M19.3571429,52.7142857 C19.1059643,52.7142857 18.8908214,52.54025 18.8351429,52.2990357 L18.2995,49.9776071 C18.2412041,49.7249889 18.3721698,49.466878 18.6104643,49.36475 L21.1103929,48.2933571 C21.3297778,48.1993416 21.5848977,48.2618036 21.7360357,48.4465357 L22.8430714,49.7995714 C24.5910714,48.9794643 25.9965357,47.5546429 26.7995357,45.8431429 L25.4464643,44.7361071 C25.2617428,44.5849624 25.1992827,44.3298503 25.2932857,44.1104643 L26.3647143,41.6105357 C26.4668422,41.3722412 26.7249532,41.2412755 26.9775714,41.2995714 L29.299,41.8352143 C29.542081,41.8912535 29.7142857,42.1076859 29.7142857,42.3571429 C29.7142857,48.0818571 25.0733929,52.7142857 19.3571429,52.7142857 Z" id="Shape"></path>
                </g>
            </g>
        </g>
    </g>
</svg>